# Transmission gear wheel, generated by tools/gen_transmission_assets.py
mtllib wheel.mtl
o wheel
v 0.804688 0.281250 0.006250
v 0.617188 0.281250 0.006250
v 0.617188 0.718750 0.006250
v 0.804688 0.718750 0.006250
v 0.804688 0.062500 0.385136
v 0.617188 0.062500 0.385136
v 0.617188 0.281250 0.006250
v 0.804688 0.281250 0.006250
v 0.804688 0.281250 0.764022
v 0.617188 0.281250 0.764022
v 0.617188 0.062500 0.385136
v 0.804688 0.062500 0.385136
v 0.804688 0.718750 0.764022
v 0.617188 0.718750 0.764022
v 0.617188 0.281250 0.764022
v 0.804688 0.281250 0.764022
v 0.804688 0.937500 0.385136
v 0.617188 0.937500 0.385136
v 0.617188 0.718750 0.764022
v 0.804688 0.718750 0.764022
v 0.804688 0.718750 0.006250
v 0.617188 0.718750 0.006250
v 0.617188 0.937500 0.385136
v 0.804688 0.937500 0.385136
v 0.617188 0.718750 0.006250
v 0.617188 0.281250 0.006250
v 0.617188 0.062500 0.385136
v 0.617188 0.281250 0.764022
v 0.617188 0.281250 0.764022
v 0.617188 0.718750 0.764022
v 0.617188 0.937500 0.385136
v 0.617188 0.718750 0.006250
v 0.804688 0.281250 0.764022
v 0.804688 0.062500 0.385136
v 0.804688 0.281250 0.006250
v 0.804688 0.718750 0.006250
v 0.804688 0.718750 0.006250
v 0.804688 0.937500 0.385136
v 0.804688 0.718750 0.764022
v 0.804688 0.281250 0.764022
vt 0.000000 0.562500
vt 0.187500 0.562500
vt 0.187500 1.000000
vt 0.000000 1.000000
vt 0.187500 0.562500
vt 0.375000 0.562500
vt 0.375000 1.000000
vt 0.187500 1.000000
vt 0.375000 0.562500
vt 0.562500 0.562500
vt 0.562500 1.000000
vt 0.375000 1.000000
vt 0.562500 0.562500
vt 0.750000 0.562500
vt 0.750000 1.000000
vt 0.562500 1.000000
vt 0.750000 0.562500
vt 0.937500 0.562500
vt 0.937500 1.000000
vt 0.750000 1.000000
vt 0.000000 0.125000
vt 0.187500 0.125000
vt 0.187500 0.562500
vt 0.000000 0.562500
vt 0.718750 0.993750
vt 0.281250 0.993750
vt 0.062500 0.614864
vt 0.281250 0.235978
vt 0.281250 0.235978
vt 0.718750 0.235978
vt 0.937500 0.614864
vt 0.718750 0.993750
vt 0.281250 0.235978
vt 0.062500 0.614864
vt 0.281250 0.993750
vt 0.718750 0.993750
vt 0.718750 0.993750
vt 0.937500 0.614864
vt 0.718750 0.235978
vt 0.281250 0.235978
vn 0.000000 0.000000 -1.000000
vn 0.000000 -0.866025 -0.500000
vn 0.000000 -0.866025 0.500000
vn 0.000000 -0.000000 1.000000
vn 0.000000 0.866025 0.500000
vn 0.000000 0.866025 -0.500000
vn -1.000000 0.000000 0.000000
vn -1.000000 0.000000 0.000000
vn 1.000000 0.000000 0.000000
vn 1.000000 0.000000 0.000000
usemtl wheel
f 1/1/1 2/2/1 3/3/1 4/4/1
f 5/5/2 6/6/2 7/7/2 8/8/2
f 9/9/3 10/10/3 11/11/3 12/12/3
f 13/13/4 14/14/4 15/15/4 16/16/4
f 17/17/5 18/18/5 19/19/5 20/20/5
f 21/21/6 22/22/6 23/23/6 24/24/6
usemtl brass
f 25/25/7 26/26/7 27/27/7 28/28/7
f 29/29/8 30/30/8 31/31/8 32/32/8
f 33/33/9 34/34/9 35/35/9 36/36/9
f 37/37/10 38/38/10 39/39/10 40/40/10
